<?xml version="1.0" standalone="no"?>
<!DOCTYPE svg PUBLIC "-//W3C//DTD SVG 1.1//EN" "http://www.w3.org/Graphics/SVG/1.1/DTD/svg11.dtd" >
<!--
2013-9-30: Created.
-->
<svg>
<metadata>
Created by iconfont
</metadata>
<defs>

<font id="iconfont" horiz-adv-x="1024" >
  <font-face
    font-family="iconfont"
    font-weight="500"
    font-stretch="normal"
    units-per-em="1024"
    ascent="896"
    descent="-128"
  />
    <missing-glyph />
    
    <glyph glyph-name="htmal5icon35" unicode="&#58952;" d="M124.56604 636.408707l0-84.975347 764.78119 0 0 84.975347L124.56604 636.408707zM124.56604 338.99397l764.78119 0 0 84.97637L124.56604 423.97034 124.56604 338.99397zM124.56604 126.55458l764.78119 0 0 84.97637L124.56604 211.53095 124.56604 126.55458z"  horiz-adv-x="1024" />

    
    <glyph glyph-name="tuichu5" unicode="&#58960;" d="M1008 390.2 1008 390.2 1008 390.2zM507.528-110.264 507.528-110.264c-250.512 0-453.56 203.016-453.56 453.56 0 189.616 116.408 351.984 281.52 419.72l0-0.112c4.88 1.744 10.144 2.68 15.664 2.68 25.84 0 46.936-20.992 46.936-46.896 0-20.392-13.056-37.832-31.336-44.264l0-0.032c-128.664-54.736-218.944-182.384-218.944-331.064 0-198.688 161.032-359.72 359.72-359.72 198.696 0 359.728 161.064 359.728 359.72 0 148.68-90.216 276.304-218.984 331.064l0 0c-18.24 6.4-31.264 23.84-31.264 44.256 0 25.912 20.984 46.904 46.904 46.904 5.456 0 10.68-0.936 15.632-2.68l0 0.112c165.248-67.744 281.52-230.112 281.52-419.72C961.104 92.752 758.016-110.264 507.528-110.264M507.528 374.56c-25.872 0-46.896 21-46.896 46.944L460.632 699.096 460.632 793.952 460.632 843.76c-0.032 25.848 21.024 46.904 46.896 46.904 25.912 0 46.904-21.032 46.904-46.904l0-140.776 0-93.832 0-187.624C554.44 395.592 533.448 374.56 507.528 374.56"  horiz-adv-x="1024" />

    
    <glyph glyph-name="tishi" unicode="&#58899;" d="M512 866.04c265.783 0 482.041-216.223 482.041-482.041 0-265.783-216.257-482.041-482.041-482.041-265.818 0-482.041 216.223-482.041 482.041s216.223 482.041 482.041 482.041zM512-28.873c227.671 0 412.872 185.2 412.872 412.872 0 227.637-185.2 412.872-412.872 412.872-227.637 0-412.872-185.2-412.872-412.872s185.236-412.872 412.872-412.872zM563.877 159.202c0 28.651-23.226 51.877-51.877 51.877s-51.877-23.226-51.877-51.877 23.226-51.877 51.877-51.877 51.877 23.226 51.877 51.877zM512 660.677c19.09 0 34.585-15.458 34.585-34.585l0-311.261c0-19.09-15.494-34.585-34.585-34.585s-34.585 15.494-34.585 34.585l0 311.261c0 19.127 15.494 34.585 34.585 34.585z"  horiz-adv-x="1024" />

    
    <glyph glyph-name="3d-copy" unicode="&#58891;" d="M331.492 5.862c-129.826 61.14-222.73 187.394-237.022 336.674h-59.553c20.247-244.565 224.714-436.723 474.439-436.723l26.203 1.19-151.264 151.265c0 0-52.804-52.406-52.804-52.406zM366.827 264.72c-7.543 0-14.69 1.19-20.645 3.177-6.353 2.382-11.514 5.162-15.881 9.529-4.367 3.97-7.941 8.734-10.322 14.69-2.382 5.558-3.573 11.91-3.573 18.659h-51.613c0-14.292 2.779-26.997 8.337-37.716 5.558-10.72 13.102-19.852 22.234-27.394 9.527-7.147 20.247-12.704 32.556-16.278 11.91-3.97 24.615-5.955 38.114-5.955 14.69 0 28.586 1.985 40.893 5.955 12.704 3.97 23.822 9.925 32.954 17.469 9.132 7.543 16.675 17.072 21.836 28.586 5.162 11.514 7.941 24.219 7.941 38.511 0 7.543-0.794 15.087-2.779 22.234-1.985 7.147-4.765 13.897-9.132 20.247-3.97 6.353-9.527 11.91-15.881 17.072-6.749 5.161-14.69 9.132-24.219 12.308 7.941 3.573 14.69 7.941 20.645 13.102 5.955 5.162 10.72 10.72 14.69 16.675 3.97 5.955 6.749 11.91 8.734 18.263 1.985 6.353 2.779 12.704 2.779 19.057 0 14.292-2.382 26.997-7.147 38.114-4.765 11.116-11.514 20.247-20.247 27.394-7.941 7.543-18.659 13.102-30.571 17.072-12.308 3.572-25.806 5.558-40.496 5.558-14.292 0-27.394-1.985-39.702-6.353-11.91-4.367-22.63-10.322-31.365-17.866-8.337-7.543-15.087-16.278-20.247-26.601-4.765-10.322-7.147-21.439-7.147-33.747h51.613c0 6.749 1.19 12.704 3.573 17.866 2.382 5.161 5.558 9.925 9.925 13.499 4.367 3.573 9.132 6.749 15.087 8.734 5.955 1.985 11.91 3.177 19.057 3.177 15.881 0 27.791-3.97 35.334-12.308 7.543-7.941 11.514-19.454 11.514-34.144 0-7.147-1.19-13.499-3.177-19.454s-5.558-10.72-9.925-14.69c-4.367-3.97-9.925-7.147-16.278-9.529s-14.292-3.573-23.027-3.573h-30.571v-40.893h30.571c8.734 0 16.675-0.794 23.822-2.779s13.102-5.161 17.866-9.132c4.765-4.367 8.734-9.527 11.514-15.881 2.779-6.353 3.97-13.897 3.97-22.63 0-16.278-4.765-28.586-13.897-36.923-9.132-9.131-21.836-13.101-37.717-13.101zM706.279 499.757c-12.704 13.102-27.791 23.424-45.26 30.571-17.072 7.147-36.526 10.72-57.966 10.72h-93.697v-317.617h91.315c21.836 0 42.084 3.573 59.95 10.72s33.349 17.072 46.054 30.173c12.704 13.102 22.63 28.982 29.379 47.246 6.749 18.659 10.322 39.305 10.322 62.333v15.881c0 23.027-3.573 43.671-10.322 62.333-7.147 18.659-17.072 34.541-29.777 47.642zM690.797 374.298c0-16.675-1.985-31.365-5.558-44.864-3.97-13.102-9.527-24.615-17.072-33.747-7.543-9.132-17.072-16.278-28.189-21.042-11.514-4.765-24.615-7.147-39.305-7.147h-36.128v229.082h38.511c28.586 0 50.422-9.132 65.111-27.394 15.087-18.263 22.63-44.466 22.63-79.007v-15.882zM509.358 858.663l-26.203-1.19 151.265-151.265 52.803 52.803c129.826-61.538 222.729-187.394 236.624-336.674h59.553c-19.85 244.167-224.316 436.325-474.043 436.325z"  horiz-adv-x="1024" />

    
    <glyph glyph-name="back" unicode="&#58890;" d="M511.744-127.489c-69.066 0-136.132 13.493-199.201 40.28-60.97 25.787-115.742 62.669-162.619 109.745-47.077 46.977-83.958 101.649-109.745 162.719-26.687 63.169-40.18 130.135-40.18 199.201s13.593 136.132 40.18 199.201c25.787 60.67 62.669 115.542 109.745 162.519s101.649 83.958 162.619 109.545c63.069 26.687 130.135 40.28 199.201 40.28s136.132-13.493 199.201-40.28c60.97-25.787 115.742-62.569 162.619-109.545 47.077-46.977 83.958-101.649 109.745-162.719 26.687-63.169 40.18-130.135 40.18-199.201 0-92.654-25.088-183.409-72.464-262.569-8.696-14.493-27.286-19.090-41.679-10.495-14.393 8.696-18.991 27.286-10.495 41.779 41.679 69.665 63.768 149.625 63.868 231.185 0 60.87-11.894 119.84-35.382 175.413-22.689 53.773-55.272 101.849-96.652 143.329s-89.755 73.963-143.429 96.652c-55.672 23.488-114.643 35.382-175.613 35.382s-119.94-11.894-175.613-35.382c-53.573-22.689-101.749-55.272-143.129-96.652s-73.963-89.555-96.652-143.329c-23.488-55.572-35.382-114.643-35.382-175.413 0-60.87 11.894-119.84 35.382-175.413 22.689-53.773 55.272-101.849 96.652-143.329 41.379-41.379 89.755-73.963 143.429-96.652 55.572-23.588 114.643-35.382 175.613-35.382 90.855 0 178.411 26.887 253.274 77.761 13.893 9.395 32.784 5.897 42.279-7.996 9.395-13.893 5.897-32.884-7.996-42.279-85.158-57.871-184.608-88.356-287.757-88.356zM543.799 185.516h-161.919c-16.792 0-30.385 13.593-30.385 30.385s13.593 30.385 30.385 30.385h161.919c28.186 0 54.673 10.895 74.463 30.685 19.69 19.79 30.585 46.177 30.585 74.163 0 28.286-10.795 54.573-30.585 74.363-19.69 19.69-45.877 30.485-73.663 30.485h-162.919c-16.792 0-30.385 13.593-30.385 30.385s13.593 30.385 30.385 30.385h162.819c44.178 0 85.657-17.091 116.742-48.376 31.085-31.184 48.376-72.764 48.376-117.342 0-44.278-17.191-85.957-48.376-117.242-31.284-31.085-72.964-48.276-117.442-48.276zM408.866 594.712v-216.492l-108.146 108.346z"  horiz-adv-x="1024" />

    
    <glyph glyph-name="xunjianguiji" unicode="&#59024;" d="M517.654925 448.863522c68.837254 0 124.897433 54.210866 124.897433 120.908418 0 66.697552-56.060179 120.908418-124.897433 120.908418-68.837254 0-124.897433-54.210866-124.897432-120.908418 0-66.697552 56.044896-120.908418 124.897432-120.908418zm0 182.44012c34.647881 0 62.693254-27.86197 62.693254-62.234746 0-34.326925-28.045373-62.234746-62.693254-62.234747-34.60203 0-62.693254 27.907821-62.693253 62.234747 0 34.372776 28.091224 62.234746 62.693253 62.234746zm-120.893134-365.338746c1.803463-2.567642 3.576358-4.630925 5.028299-6.113433 42.136836-51.001313 84.60991-84.930866 86.44394-86.367523l29.589015-23.521433 29.466746 23.704836c1.83403 1.436657 44.169552 35.763582 86.22997 86.581493 1.436657 1.528358 3.270687 3.652776 5.058866 6.266268 60.140896 78.282507 134.908179 191.732537 151.811821 289.944836 3.255403 22.390448 3.347104 35.946985 3.347104 37.429493 0.565493 73.391761-28.717851 142.366567-82.409074 193.994507-51.994746 50.007881-120.801433 77.533612-193.673553 77.533612-72.597015 0-141.220299-27.525731-193.215044-77.533612-53.981612-51.903045-83.448358-121.229373-82.882866-195.156059 0-1.176836 0.091701-14.779224 3.224836-36.099821 18.141612-105.08991 102.537552-226.594388 151.97994-290.663164zm120.893134 522.988895c113.816836 0 206.985552-90.937313 206.160239-203.928836 0 0 0-10.224716-2.47594-27.174209-13.617672-79.123104-77.915701-177.136716-129.467224-244.078806-0.412657-0.794746-1.23797-1.558925-1.635343-1.971582-35.885851-43.680478-72.581731-73.223642-72.581732-73.223642s-36.711164 29.145791-72.581731 72.826269c-0.397373 0.397373-1.222687 1.207403-1.650627 1.971582-51.551522 66.529433-115.849552 164.955701-129.45194 243.712-2.47594 16.903642-2.47594 27.174209-2.47594 27.174209-0.840597 112.976239 92.343403 204.693015 206.160238 204.693015zM219.884896-97.432836 901.471522-97.432836c58.643104 0 107.229612 44.521075 107.229612 100.825791 0 56.304716-48.586507 100.810507-107.229612 100.810508L122.513194 104.203463c-22.023642 0-38.835582 15.405851-38.835582 32.98197 0 17.591403 16.81194 32.997254 38.835582 32.997254l121.718448 0a34.036537 34.036537 0 0 0 34.189373 33.914268 34.051821 34.051821 0 0 0-34.189373 33.914269L122.513194 238.011224c-58.627821 0-107.214328-44.505791-107.214328-100.825791 0-56.304716 48.586507-100.810507 107.214328-100.810508l778.958328 0c22.038925 0 38.850866-15.390567 38.850866-32.98197s-16.81194-32.98197-38.850866-32.98197L219.884896-29.589015a34.067104 34.067104 0 0 0-34.189374-33.929552A34.067104 34.067104 0 0 0 219.884896-97.432836z"  horiz-adv-x="1024" />

    
    <glyph glyph-name="queren" unicode="&#58901;" d="M553.59227 266.118035L378.482282 422.619931c-17.380453 15.533364-44.062905 14.036444-59.596269-3.34401-15.533364-17.380453-14.036444-44.062905 3.344009-59.596269L526.258627 177.331819c16.351449-14.613915 41.170429-14.270914 57.1113 0.789415l394.504039 372.708593c13.217336 12.488329 16.952469 32.037372 9.267186 48.51783C868.924376 852.864735 567.575472 962.546403 314.058393 844.329627 60.541315 726.112851-49.140352 424.763946 69.076423 171.246868S488.642104-191.951877 742.159182-73.735102c113.866287 53.096645 201.930664 144.884893 250.783304 257.877806 9.250804 21.396132-0.594877 46.240709-21.992032 55.491513-21.396132 9.250804-46.240709-0.594877-55.49049-21.991009-40.72811-94.201545-114.021918-170.594653-208.976018-214.872574-211.264402-98.51415-462.38866-7.111907-560.902811 204.151471s-7.111907 462.38866 204.151471 560.902811C551.822996 862.060249 790.387253 782.516646 896.955285 590.510503L553.59227 266.118035z m-28.192683-26.635353l57.1113 0.789416-28.918617 25.845937-28.192683-26.635353z"  horiz-adv-x="1024" />

    
    <glyph glyph-name="licheng" unicode="&#58944;" d="M511.376429 115.160827l-24.559116 16.308788c-12.72725 8.426207-311.705702 209.168197-311.705702 434.853038C175.111611 747.558054 325.887952 895.008682 511.232528 895.008682c185.328587 0 336.104928-147.450628 336.104927-328.686029 0-223.222535-298.786584-426.218974-311.481856-434.741115l-24.47917-16.420711z m-0.143901 694.722378c-137.329586 0-249.07676-109.252889-249.07676-243.560552 0-147.930298 181.747049-296.867903 248.948848-346.86553 67.18581 50.461308 249.188683 200.646056 249.188682 346.86553 0 134.307663-111.715196 243.560552-249.06077 243.560552zM511.232528 483.707451a104.168384 104.168384 0 0 0-104.056462 104.056461c0 57.368559 46.671913 104.056461 104.056462 104.056461s104.07245-46.671913 104.07245-104.056461a104.184373 104.184373 0 0 0-104.07245-104.056461z m0 137.169696c-18.259447 0-33.113235-14.853788-33.113235-33.113235s14.869777-33.113235 33.113235-33.113234 33.113235 14.853788 33.113234 33.113234-14.853788 33.113235-33.113234 33.113235zM511.232528-127.824121c-204.61133 0-424.827931 52.939604-424.827931 169.195678 0 36.854662 23.487852 88.962838 135.394916 127.688214l26.205983-75.659983c-67.66548-23.455874-81.511961-47.023671-81.51196-52.028231 0-25.854225 120.812941-89.09075 344.738992-89.09075 223.94204 0 344.738992 63.236525 344.738992 89.09075 0 5.180438-14.470052 29.547686-85.39729 53.339329l25.502467 75.915808c115.696459-38.82131 139.99975-91.712947 139.99975-129.255137-0.015989-116.272063-220.216601-169.195678-424.843919-169.195678z"  horiz-adv-x="1024" />

    
    <glyph glyph-name="xinzeng" unicode="&#58990;" d="M230.4 307.2h204.8v-204.8c0-15.36 12.8-25.6 25.6-25.6s25.6 10.24 25.6 25.6v204.8h204.8c12.8 0 25.6 10.24 25.6 25.6s-12.8 25.6-25.6 25.6h-204.8v204.8c0 15.36-12.8 25.6-25.6 25.6s-25.6-10.24-25.6-25.6v-204.8H230.4c-12.8 0-25.6-10.24-25.6-25.6s12.8-25.6 25.6-25.6zM921.6 819.2H256c-12.8 0-25.6-10.24-25.6-25.6s12.8-25.6 25.6-25.6h640v-640c0-15.36 12.8-25.6 25.6-25.6s25.6 10.24 25.6 25.6V793.6c0 15.36-12.8 25.6-25.6 25.6zM819.2 716.8H102.4c-12.8 0-25.6-10.24-25.6-25.6v-716.8c0-15.36 12.8-25.6 25.6-25.6h716.8c12.8 0 25.6 10.24 25.6 25.6V691.2c0 15.36-12.8 25.6-25.6 25.6z m-25.6-51.2v-665.6H128V665.6h665.6z"  horiz-adv-x="1024" />

    
    <glyph glyph-name="paifa" unicode="&#58902;" d="M1016.457509 854.308571l-105.325715-752.274285a38.253714 38.253714 0 0 0-15.945143-25.892572 37.522286 37.522286 0 0 0-29.696-5.412571L454.281509 168.96l-4.461715-157.988571 87.990857 73.874285c14.336 13.238857 35.181714 15.213714 49.444572 4.096 18.432-14.116571 19.529143-41.033143 2.779428-56.685714L438.336366-110.738286a36.425143 36.425143 0 0 0-39.936-6.582857 37.156571 37.156571 0 0 0-22.528 34.157714v300.617143c0 10.971429 4.388571 20.699429 12.507428 27.721143l213.577143 239.689143a37.229714 37.229714 0 0 0 52.662857 2.706286c15.36-13.677714 16.457143-37.302857 2.706286-52.809143L486.976366 243.638857l352.841143-90.112 88.795428 604.306286a14.921143 14.921143 0 0 1-22.308571 15.140571L287.15008 413.476571 142.107794 329.142857l139.995429-42.276571a38.034286 38.034286 0 0 0 29.769143-39.643429 37.010286 37.010286 0 0 0-46.08-32.914286L28.004937 275.236571a37.083429 37.083429 0 0 0-9.289143 68.169143L961.088366 890.88a37.888 37.888 0 0 0 39.570285-1.097143c11.702857-7.460571 17.993143-22.089143 15.798858-35.620571z"  horiz-adv-x="1024" />

    
    <glyph glyph-name="danhao" unicode="&#58887;" d="M666.952606 830.760137H202.656071c-61.023842 0-99.755981-36.59036-99.755981-93.550653v-695.389774c0-56.925501 49.473785-103.127775 110.513999-103.127775h593.20651c61.024865 0 90.549296 46.672996 90.549296 103.600543V588.688869L666.952606 830.760137z m-21.74935-71.114665l172.71976-181.189665H679.73677c-30.520107 0-34.533514 16.303314-34.533514 44.766576V759.645472z m193.132672-727.586056c0-28.463262-4.013407-34.533514-34.533514-34.533515H196.267571c-30.520107 0-34.533514 6.070252-34.533515 34.533515V737.054965c0 28.497031 4.013407 34.533514 34.533515 34.533514h390.101719V588.687846c0-56.925501 8.043187-69.067029 69.067028-69.067029h182.89961v-487.561401zM679.800215 208.818165H320.270792c-15.597233 0-20.402679-5.462408-20.402679-22.997783v-14.815427c0-17.536398 4.805446-23.066345 20.402679-23.066345h359.530447c15.59621 0 20.402679 5.529947 20.402679 23.066345v14.815427c-0.001023 17.536398-4.806469 22.997784-20.403703 22.997783z m-379.932102 149.668765v-14.812357c0-17.538445 4.6366-23.068392 19.729344-23.068392h360.876094c15.092743 0 19.729344 5.529947 19.729343 23.068392v14.812357c0 17.536398-4.6366 23.000853-19.729343 23.000853H319.596434c-10.775414 0-19.72832-5.464455-19.728321-23.000853z m20.149923 134.787846h177.134303c15.410991 0 20.148899 5.529947 20.148899 23.067368v14.813381c0 17.536398-4.738931 22.99983-20.148899 22.99983h-177.134303c-15.413038 0-20.150946-5.463432-20.150946-22.99983v-14.813381c0.001023-17.537422 4.738931-23.067368 20.150946-23.067368z"  horiz-adv-x="1024" />

    
    <glyph glyph-name="mcode" unicode="&#59211;" d="M630.411 65.249H393.59c-22.6 0-40.964-14.257-40.964-31.875 0-17.617 18.364-31.874 40.964-31.874h236.821c22.598 0 40.965 14.257 40.965 31.874 0 17.618-18.367 31.875-40.965 31.875zM565.79-62.25H458.211c-23.096 0-41.835-14.26-41.835-31.878S435.115-126 458.211-126H565.79c23.096 0 41.836 14.254 41.836 31.872s-18.74 31.878-41.836 31.878zM607.626 320.249c14.101 0 31.875 12.14 31.875 27.08V546.347c0 10.335-5.543 19.75-14.319 24.295-8.653 4.563-19.145 3.424-26.833-2.925l-87.967-72.42-84.389 72.123c-7.627 6.538-18.146 7.828-26.988 3.316-8.902-4.483-14.505-13.978-14.505-24.391v-194.222c0-14.94 17.774-31.875 31.874-31.875 14.069 0 31.876 16.935 31.876 31.875v127.5l45.851-39.904c9.152-7.845 22.257-8.002 31.625-0.297l50.022 40.201v-127.499c0.003-14.94 17.778-31.875 31.878-31.875zM384.501 128.999c-2.367-0.436 2.366 0 0 0zM639.501 128.999c-2.552 0 2.584-0.529 0 0zM512.002 894C301.078 894 129.5 755.496 129.5 546.067c0-136.449 71.905-259.811 189.32-327.855l33.806-57.341c3.454-19.361 13.073-31.872 31.875-31.872 21.572 3.982 35.796 10.084 31.875 31.872l-31.875 63.753c-1.993 11.144-23.221 26.053-31.875 31.875-103.47 51.174-159.375 172.635-159.375 286.874 0 165.197 151.592 286.875 318.751 286.875 167.156 0 318.749-121.678 318.749-286.875 0-101.119-73.899-231.154-159.375-286.874-12.141-4.856-29.166-17.932-31.875-31.875l-31.875-63.753c-4.232-21.726 10.397-27.579 31.875-31.872 18.55 0 28.141 12.762 31.875 31.872l25.338 40.438C800.713 272.374 894.5 420.323 894.5 546.065 894.5 755.496 722.923 894 512.002 894z"  horiz-adv-x="1024" />

    
    <glyph glyph-name="cha" unicode="&#59014;" d="M600.556611 384.231104l405.089675 404.724004a62.383371 62.383371 0 0 1 0 88.419104 62.383371 62.383371 0 0 1-88.419104 0L512.064373 472.796476 106.901564 877.52048a62.383371 62.383371 0 0 1-88.419104 0 62.383371 62.383371 0 0 1 0-88.419104L423.572135 384.450506 18.48246-20.492901a62.383371 62.383371 0 0 1 44.172985-106.62949c16.089498 0 31.959593 6.070129 44.246119 18.28352L512.064373 295.885134l405.162809-404.870273c12.286526-12.286526 28.156621-18.28352 44.246119-18.28352a62.383371 62.383371 0 0 1 44.172985 106.62949L600.556611 384.231104z"  horiz-adv-x="1024" />

    
    <glyph glyph-name="tupianshangchuan" unicode="&#58937;" d="M712.5 107.2H194.2c-22.5 0-43 8.8-58.7 23.3l146.9 183.2c7.9 9.8 19 15.5 31.2 15.9 12.2 0.4 23.6-4.6 32-13.9l12.9-14.3c17.1-19 41-28.8 65.8-27.1 24.7 1.7 47.2 14.9 61.8 36L560.2 418c8 11.7 20.5 18.4 34.1 18.5h0.3c13.6 0 26-6.6 34.1-18.1l76.7-108.9c6.8-9.6 19.6-11.5 28.6-4.3 8.9 7.1 10.7 20.4 4 29.9L661.3 444c-15.9 22.5-40.1 35.4-66.7 35.4h-0.5c-26.8-0.2-51.1-13.4-66.8-36.2l-74.1-107.8c-7.4-10.8-18.9-17.5-31.6-18.4-12.6-0.9-24.9 4.2-33.6 13.8l-12.9 14.3c-16.2 18-39.1 28-62.7 27.3-23.6-0.7-45.8-12-61.1-31l-140-174.7c-4 10.7-6.3 22.5-6.3 34.7V567.1c0 52 40 94.2 89.2 94.2H767c49.3 0 89.2-42.2 89.2-94.2v-181.3c0-11.9 9.1-21.5 20.3-21.5s20.3 9.6 20.3 21.5V567.1c0 75.7-58.2 137.1-129.9 137.1H194.2c-71.7 0-129.9-61.4-129.9-137.1v-365.7c0-75.7 58.2-137.1 129.9-137.1h518.3c11.2 0 20.3 9.6 20.3 21.5 0 11.8-9.1 21.4-20.3 21.4zM926.6 223.3h-52.5v54.5c0 19.4-14.9 35.1-33.2 35.1s-33.2-15.7-33.2-35.1v-54.5h-53.6c-18.3 0-33.2-15.7-33.2-35.1 0-19.4 14.9-35.1 33.2-35.1h53.6v-53.9c0-19.4 14.9-35.1 33.2-35.1s33.2 15.7 33.2 35.1v53.9h52.5c18.3 0 33.2 15.7 33.2 35.1 0 19.4-14.9 35.1-33.2 35.1zM256.5 479.9c-35 0-63.6 28.5-63.6 63.6 0 35 28.5 63.6 63.6 63.6s63.6-28.5 63.6-63.6-28.6-63.6-63.6-63.6z m0 89.2c-14.1 0-25.6-11.5-25.6-25.6 0-14.1 11.5-25.6 25.6-25.6 14.1 0 25.6 11.5 25.6 25.6 0 14.1-11.5 25.6-25.6 25.6z"  horiz-adv-x="1024" />

    
    <glyph glyph-name="cuiban" unicode="&#58968;" d="M486 705.5c-212.3 0-384.6-171.8-384.6-384.6 0-212.2 171.8-384.5 384.6-384.5S870.6 108.3 870.6 321 698.3 705.5 486 705.5z m0-699.9c-174.6 0-315.9 141.2-315.9 315.9S311.4 637.3 486 637.3s315.9-141.2 315.9-315.9S660.6 5.6 486 5.6zM626.3 299.8H515.7V494.1c0 16.3-13.3 29.5-29.5 29.5h-0.5c-16.3 0-29.5-13.3-29.5-29.5v-224.2c0-16.3 13.3-29.5 29.5-29.5h140.5c16.4 0 29.7 13.4 29.7 29.7 0.1 16.3-13.2 29.7-29.6 29.7zM373.9 770.6h224.2c16.3 0 29.5 13.3 29.5 29.5v0.5c0 16.3-13.3 29.5-29.5 29.5H373.9c-16.3 0-29.5-13.3-29.5-29.5v-0.5c0.1-16.2 13.3-29.5 29.5-29.5z"  horiz-adv-x="1024" />

    
    <glyph glyph-name="duanxin" unicode="&#58881;" d="M105.7792-55.296c-22.528 0-54.4768 8.8064-78.336 51.2l-0.6144 1.1264-0.8192 1.024C9.4208 17.6128 3.584 50.7904 3.584 73.216V506.2656a65.4336 65.4336 0 0 0 3.7888 28.2624l0.6144 1.3312v1.4336A136.0896 136.0896 0 0 0 68.9152 619.52l40.96 23.8592v9.216a135.68 135.68 0 0 0 1.8432 21.2992 127.7952 127.7952 0 0 0 126.3616 107.2128H348.16l100.7616 58.1632A139.264 139.264 0 0 0 513.6384 855.04a133.12 133.12 0 0 0 62.976-15.2576l8.9088-4.8128 93.2864-53.8624H788.48a127.6928 127.6928 0 0 0 125.8496-106.7008 133.12 133.12 0 0 0 1.8432-21.4016v-8.9088l35.84-20.48 3.6864-2.2528a147.7632 147.7632 0 0 0 15.1552-10.8544l7.7824-6.2464 1.4336-1.4336A134.2464 134.2464 0 0 0 999.8336 578.56a136.2944 136.2944 0 0 0 18.5344-42.9056v-1.4336l0.6144-1.3312a37.6832 37.6832 0 0 0 3.7888-24.3712v-437.1456c0-22.3232 0-50.2784-22.6304-74.0352l-1.3312-1.4336-0.9216-1.7408a84.3776 84.3776 0 0 0-77.312-49.4592zM90.0096 25.6a55.0912 55.0912 0 0 1-7.3728-5.5296l-1.536-1.3312-14.5408-12.3904L81.92-5.12a39.3216 39.3216 0 0 1 24.3712-8.2944H920.576a40.96 40.96 0 0 1 24.576 7.5776L960.6144 5.12l-14.5408 12.288-1.3312 1.1264a74.5472 74.5472 0 0 1-9.6256 7.2704l-2.9696 2.048-339.456 196.1984-10.8544-5.9392h-0.512l-2.8672-1.536a138.752 138.752 0 0 0-130.4576 0l-13.5168 7.5776z m-44.4416 22.3232l22.3232 13.0048 0.9216 0.512 51.2 29.9008 272.2816 156.8768L174.08 373.76l-0.9216 0.512-64 36.9664-6.8608 4.096-24.9856 14.9504-31.744 18.432z m808.96 327.68l-2.6624-1.536L634.88 248.4224l317.44-183.1936a40.96 40.96 0 0 0 5.0176-2.9696l1.536-0.9216 22.016-12.1856v399.36l-64.7168-37.376z m-410.624-108.7488l21.4016-12.288 0.9216-0.512a96.4608 96.4608 0 0 1 45.8752-11.5712 97.792 97.792 0 0 1 45.568 11.264L583.68 267.776l10.24 6.2464 5.3248 2.9696L874.1888 435.2V653.0048a89.1904 89.1904 0 0 1-1.3312 14.4384 85.7088 85.7088 0 0 1-84.7872 71.68H238.08a85.8112 85.8112 0 0 1-84.7872-71.68 86.9376 86.9376 0 0 1-1.2288-14.336V435.2l33.5872-19.456 247.808-143.36z m472.2688 190.5664l23.2448 15.6672a89.3952 89.3952 0 0 1 12.5952 10.24 36.7616 36.7616 0 0 1 2.8672 3.072l0.6144 0.7168A96.9728 96.9728 0 0 1 962.56 496.64c1.024 1.536 1.8432 2.8672 2.56 3.9936l0.8192 1.3312a89.6 89.6 0 0 1 5.12 9.4208c0.9216 2.048 1.7408 4.096 2.3552 5.8368v0.7168c0.6144 1.7408 1.1264 3.4816 1.536 4.9152l1.536 5.4272-1.3312 4.3008a95.8464 95.8464 0 0 1-36.2496 49.152l-22.7328 16.2816zM75.5712 482.7136a96.6656 96.6656 0 0 1 10.9568-8.704l23.4496-16.4864V597.504L86.7328 581.632a96.1536 96.1536 0 0 1-36.2496-49.2544l-1.3312-4.3008 1.536-5.3248c0-1.6384 1.024-3.3792 1.7408-5.3248v-1.1264c0.512-1.4336 1.2288-2.9696 2.048-4.7104a89.4976 89.4976 0 0 1 5.8368-10.24l0.512-0.9216a40.1408 40.1408 0 0 1 2.6624-3.7888 95.4368 95.4368 0 0 1 11.264-13.1072zM513.2288 813.3632a96.1536 96.1536 0 0 1-23.8592-2.9696l-57.344-29.2864H599.04l-61.44 29.2864a98.0992 98.0992 0 0 1-24.3712 2.9696zM256.9216 607.5392h512.3072v-41.984H256.9216zM256.9216 490.9056h512.3072v-41.984H256.9216z"  horiz-adv-x="1024" />

    
    <glyph glyph-name="baoyu1" unicode="&#59119;" d="M288 224h448a160 160 0 0 1 0 320 224 224 0 0 1-448 0 160 160 0 0 1 0-320z m0-64a224 224 0 0 0-58.496 440.288C255.68 732.384 372.224 832 512 832c139.808 0 256.32-99.616 282.496-231.712A224 224 0 0 0 736 160H288z m-36.96-69.984a32 32 0 0 0 15.488-42.56l-27.04-57.984a32 32 0 1 0-58.016 27.04l27.04 58.016a32 32 0 0 0 42.56 15.488z m192 0a32 32 0 0 0 15.488-42.56l-27.04-57.984a32 32 0 1 0-58.016 27.04l27.04 58.016a32 32 0 0 0 42.56 15.488z m192 0a32 32 0 0 0 15.488-42.56l-27.04-57.984a32 32 0 1 0-58.016 27.04l27.04 58.016a32 32 0 0 0 42.56 15.488z m192 0a32 32 0 0 0 15.488-42.56l-27.04-57.984a32 32 0 1 0-58.016 27.04l27.04 58.016a32 32 0 0 0 42.56 15.488z"  horiz-adv-x="1024" />

    
    <glyph glyph-name="duoyun" unicode="&#59121;" d="M241.344 128h317.312A113.152 113.152 0 0 1 672 240.96000000000004c0 62.368-50.752 112.928-113.344 112.928C558.656 441.216 487.616 512 400 512s-158.656-70.784-158.656-158.112A113.152 113.152 0 0 1 128 240.928C128 178.55999999999995 178.752 128 241.344 128zM232 64c-92.8 0-168 76.416-168 170.656 0 78.848 52.608 145.184 124.128 164.8C207.744 500.096 295.168 576 400 576c104.832 0 192.256-75.904 211.872-176.544C683.392 379.84000000000003 736 313.504 736 234.65599999999995 736 140.41600000000005 660.8 64 568 64H232z m362.56 485.92a128 128 0 0 0 168.768-191.616c-5.888-5.76-13.92-9.376-22.784-9.376a32 32 0 0 0-21.312 55.872 64 64 0 0 1-86.08 94.08 32 32 0 0 0-38.592 51.04zM960 419.2a32 32 0 0 0-32-32h-32a32 32 0 1 0 0 64h32a32 32 0 0 0 32-32zM598.208 706.3679999999999a32 32 0 0 0 38.4-23.968l7.168-31.168a32 32 0 0 0-62.336-14.4L574.24 668a32 32 0 0 0 24 38.4zM868.896 644a32 32 0 0 0 4.736-44.992l-20.16-24.864a32 32 0 1 0-49.696 40.256l20.16 24.896A32 32 0 0 0 868.928 644z"  horiz-adv-x="1024" />

    
    <glyph glyph-name="xiaoyu" unicode="&#59123;" d="M288 224h448a160 160 0 0 1 0 320 224 224 0 0 1-448 0 160 160 0 0 1 0-320z m0-64a224 224 0 0 0-58.496 440.288C255.68 732.384 372.224 832 512 832c139.808 0 256.32-99.616 282.496-231.712A224 224 0 0 0 736 160H288z m144-192c-26.496 0-48 22.912-48 51.2 0 18.88 16 44.48 48 76.8 32-32.32 48-57.92 48-76.8 0-28.288-21.504-51.2-48-51.2z m160 0c-26.496 0-48 22.912-48 51.2 0 18.88 16 44.48 48 76.8 32-32.32 48-57.92 48-76.8 0-28.288-21.504-51.2-48-51.2z"  horiz-adv-x="1024" />

    
    <glyph glyph-name="yin1" unicode="&#59124;" d="M288 128h448a160 160 0 0 1 0 320 224 224 0 0 1-448 0 160 160 0 0 1 0-320z m0-64a224 224 0 0 0-58.496 440.288C255.68 636.384 372.224 736 512 736c139.808 0 256.32-99.616 282.496-231.712A224 224 0 0 0 736 64H288z"  horiz-adv-x="1024" />

    
    <glyph glyph-name="qing" unicode="&#59125;" d="M512 640a256 256 0 1 0 0-512 256 256 0 0 0 0 512z m4.576-68.576a192 192 0 1 1 0-384 192 192 0 0 1 0 384zM512 832a32 32 0 0 0 32-32v-96a32 32 0 0 0-64 0V800a32 32 0 0 0 32 32z m316.8-131.2a32 32 0 0 0 0-45.28l-67.904-67.872a32 32 0 1 0-45.248 45.248L783.52 700.8a32 32 0 0 0 45.248 0zM960 384a32 32 0 0 0-32-32h-96a32 32 0 0 0 0 64h96a32 32 0 0 0 32-32zM828.8 67.20000000000005a32 32 0 0 0-45.28 0l-67.872 67.904a32 32 0 0 0 45.248 45.248l67.872-67.872a32 32 0 0 0 0-45.248zM512-64a32 32 0 0 0-32 32v96a32 32 0 0 0 64 0v-96a32 32 0 0 0-32-32zM195.2 67.20000000000005a32 32 0 0 0 0 45.28l67.904 67.872a32 32 0 1 0 45.248-45.248L240.48 67.20000000000005a32 32 0 0 0-45.248 0zM64 384a32 32 0 0 0 32 32h96a32 32 0 0 0 0-64H96a32 32 0 0 0-32 32z m131.2 316.8a32 32 0 0 0 45.28 0l67.872-67.904a32 32 0 1 0-45.248-45.248L195.2 655.52a32 32 0 0 0 0 45.248z"  horiz-adv-x="1024" />

    
    <glyph glyph-name="leizhenyu" unicode="&#59126;" d="M190.56 125.60000000000002a224.096 224.096 0 0 0 38.944 418.08C255.68 675.744 372.224 775.36 512 775.36c139.808 0 256.32-99.616 282.496-231.712a224.096 224.096 0 0 0 39.04-417.984l-0.064-0.032a32 32 0 0 0-27.456 57.824A160 160 0 0 1 736 487.36a224 224 0 0 1-448 0 160 160 0 0 1-68.672-304.576 32 32 0 1 0-28.8-57.184z m151.104 28.288a32 32 0 0 0 15.456-42.56l-27.04-57.984a32 32 0 1 0-58.016 27.04l27.072 58.016a32 32 0 0 0 42.528 15.488z m392 0a32 32 0 0 0 15.488-42.56l-27.04-57.984a32 32 0 0 0-58.016 27.072l27.04 57.984a32 32 0 0 0 42.56 15.488zM497.44 172.54399999999998h75.264a32 32 0 0 0 33.024-45.28l-54.08-116a32 32 0 1 0-58.048 27.04l32.768 70.24h-79.104a32 32 0 0 0-28.64 46.4l54.08 116a32 32 0 1 0 58.016-27.04l-33.28-71.36z"  horiz-adv-x="1024" />

    
    <glyph glyph-name="yu" unicode="&#59127;" d="M288 224h448a160 160 0 0 1 0 320 224 224 0 0 1-448 0 160 160 0 0 1 0-320z m0-64a224 224 0 0 0-58.496 440.288C255.68 732.384 372.224 832 512 832c139.808 0 256.32-99.616 282.496-231.712A224 224 0 0 0 736 160H288z m224-192c-26.496 0-48 22.912-48 51.2 0 18.88 16 44.48 48 76.8 32-32.32 48-57.92 48-76.8 0-28.288-21.504-51.2-48-51.2z"  horiz-adv-x="1024" />

    
    <glyph glyph-name="xue" unicode="&#59128;" d="M288 224h448a160 160 0 0 1 0 320 224 224 0 0 1-448 0 160 160 0 0 1 0-320z m0-64a224 224 0 0 0-58.496 440.288C255.68 732.384 372.224 832 512 832c139.808 0 256.32-99.616 282.496-231.712A224 224 0 0 0 736 160H288z m225.536-105.376V80a16 16 0 1 0 32 0v-25.376l17.92 17.92a16 16 0 0 0 22.656-22.592L568.192 32h25.344a16 16 0 1 0 0-32H568.16l17.92-17.92a16 16 0 0 0-22.592-22.656l-17.92 17.92V-48a16 16 0 1 0-32 0v25.376l-17.984-17.92a16 16 0 0 0-22.624 22.592L490.912 0h-25.376a16 16 0 1 0 0 32h25.376l-17.92 17.92a16 16 0 1 0 22.592 22.656l17.952-17.92z"  horiz-adv-x="1024" />

    
    <glyph glyph-name="fuchen" unicode="&#59130;" d="M288 496a32 32 0 1 0 0 64 32 32 0 0 0 0-64z m224 0a32 32 0 1 0 0 64 32 32 0 0 0 0-64z m224 0a32 32 0 1 0 0 64 32 32 0 0 0 0-64zM160 368a32 32 0 1 0 0 64 32 32 0 0 0 0-64z m234.656 0a32 32 0 1 0 0 64 32 32 0 0 0 0-64z m234.688 0a32 32 0 1 0 0 64 32 32 0 0 0 0-64zM864 368a32 32 0 1 0 0 64 32 32 0 0 0 0-64zM160 624a32 32 0 1 0 0 64 32 32 0 0 0 0-64z m234.656 0a32 32 0 1 0 0 64 32 32 0 0 0 0-64z m234.688 0a32 32 0 1 0 0 64 32 32 0 0 0 0-64zM864 624a32 32 0 1 0 0 64 32 32 0 0 0 0-64zM96 272h832a32 32 0 0 0 0-64H96a32 32 0 0 0 0 64z m0-128h832a32 32 0 0 0 0-64H96a32 32 0 0 0 0 64z"  horiz-adv-x="1024" />

    
    <glyph glyph-name="tedashachenbao" unicode="&#59133;" d="M128 0.15999999999996817a32 32 0 1 0 0 64 32 32 0 0 0 0-64z m128.032 63.936h64.064a32 32 0 1 0 0-64H256a32 32 0 1 0 0 64z m192-63.936a32 32 0 1 0-0.032 64 32 32 0 0 0 0-64z m224 383.968H96a32 32 0 1 0 0 64v-0.032h576a128 128 0 1 1-128 125.696 32 32 0 1 0-64 0.64v1.6A192 192 0 0 0 672 768a192 192 0 1 0 0-383.872zM860.128 256H96a32 32 0 0 0 0 64h768c0.608 0 1.184 0 1.76-0.064a32 32 0 0 1-2.208 63.936v0.256a32 32 0 1 0 5.184 63.616A96 96 0 0 0 860.128 256z m-1.952-64a96 96 0 0 0 10.56-191.68 32 32 0 0 0-5.184 63.616v0.288H864a32 32 0 0 1 2.496 63.872A32.448 32.448 0 0 0 864 128H96a32 32 0 0 0 0 64h762.176zM576.032 64.096h64.064a32 32 0 1 0 0-64H576a32 32 0 1 0 0 64zM128.032 544a32 32 0 1 0-0.032 64 32 32 0 0 0 0-64z m128 63.936H384a32 32 0 1 0 0-64H256.032a32 32 0 1 0 0 64z"  horiz-adv-x="1024" />

    
    <glyph glyph-name="shachenbao" unicode="&#59134;" d="M239.936 545.312a32 32 0 1 0 0 64 32 32 0 0 0 0-64zM128 448.16a32 32 0 1 0 0 64 32 32 0 0 0 0-64z m224 0a32 32 0 1 0-0.032 64 32 32 0 0 0 0-64zM128 640a32 32 0 1 0 0 64 32 32 0 0 0 0-64z m224 0a32 32 0 1 0-0.032 64 32 32 0 0 0 0-64zM128 64.03200000000004a32 32 0 1 0 0 64 32 32 0 0 0 0-64zM256.032 128h64.064a32 32 0 1 0 0-64H256a32 32 0 0 0 0 64z m418.976 192.128A192 192 0 1 1 480 509.824a32 32 0 1 1 64 0v2.304a128 128 0 1 0 128-128V384H96a32 32 0 0 1 0-64h576c1.024 0 2.016 0.032 3.008 0.128zM859.264 256a96 96 0 0 0 9.472-191.776 32 32 0 0 0-5.184 63.68v0.224H864a32 32 0 0 1 1.92 63.936L864 192H96a32 32 0 0 0 0 64h763.264zM671.552 101.88800000000003v-11.776A32 32 0 0 0 640.096 64H576a32 32 0 0 0 0 64h64.064a32 32 0 0 0 31.456-26.112zM448 64a32 32 0 1 0 0 64 32 32 0 0 0 0-64z"  horiz-adv-x="1024" />

    
    <glyph glyph-name="wu" unicode="&#59135;" d="M749.376 208H685.44a192 192 0 1 1-337.76 0h-73.056a256 256 0 1 0 474.784 0zM512 752a32 32 0 0 0 32-32v-96a32 32 0 0 0-64 0v96a32 32 0 0 0 32 32z m316.8-131.2a32 32 0 0 0 0-45.28l-67.904-67.872a32 32 0 0 0-45.248 45.248L783.52 620.8a32 32 0 0 0 45.248 0zM960 304a32 32 0 0 0-32-32h-96a32 32 0 0 0 0 64h96a32 32 0 0 0 32-32z m-896 0a32 32 0 0 0 32 32h96a32 32 0 0 0 0-64H96a32 32 0 0 0-32 32z m131.2 316.8a32 32 0 0 0 45.28 0l67.872-67.904a32 32 0 1 0-45.248-45.248L195.2 575.52a32 32 0 0 0 0 45.248zM96 208h832a32 32 0 0 0 0-64H96a32 32 0 0 0 0 64z m0-128h832a32 32 0 0 0 0-64H96a32 32 0 0 0 0 64z"  horiz-adv-x="1024" />

    
    <glyph glyph-name="yujiaxue" unicode="&#59138;" d="M288 224h448a160 160 0 0 1 0 320 224 224 0 0 1-448 0 160 160 0 0 1 0-320z m0-64a224 224 0 0 0-58.496 440.288C255.68 732.384 372.224 832 512 832c139.808 0 256.32-99.616 282.496-231.712A224 224 0 0 0 736 160H288z m432-105.376V80a16 16 0 1 0 32 0v-25.376l17.92 17.92a16 16 0 0 0 22.656-22.592L774.656 32H800a16 16 0 1 0 0-32h-25.376l17.92-17.92a16 16 0 0 0-22.592-22.656L752-22.65599999999995V-48a16 16 0 1 0-32 0v25.376l-17.92-17.92a16 16 0 0 0-22.656 22.592L697.344 0H672a16 16 0 1 0 0 32h25.376l-17.92 17.92a16 16 0 0 0 22.592 22.656L720 54.65599999999995z m-224 0V80a16 16 0 1 0 32 0v-25.376l17.92 17.92a16 16 0 0 0 22.656-22.592L550.656 32H576a16 16 0 1 0 0-32h-25.376l17.92-17.92a16 16 0 0 0-22.592-22.656L528-22.65599999999995V-48a16 16 0 1 0-32 0v25.376l-17.92-17.92a16 16 0 0 0-22.656 22.592L473.344 0H448a16 16 0 1 0 0 32h25.376l-17.92 17.92a16 16 0 0 0 22.592 22.656L496 54.65599999999995z m-224 0V80a16 16 0 1 0 32 0v-25.376l17.92 17.92a16 16 0 0 0 22.656-22.592L326.656 32H352a16 16 0 1 0 0-32h-25.376l17.92-17.92a16 16 0 0 0-22.592-22.656L304-22.65599999999995V-48a16 16 0 1 0-32 0v25.376l-17.92-17.92a16 16 0 0 0-22.656 22.592L249.344 0H224a16 16 0 1 0 0 32h25.376l-17.92 17.92a16 16 0 0 0 22.592 22.656L272 54.65599999999995z"  horiz-adv-x="1024" />

    
    <glyph glyph-name="daxue" unicode="&#59141;" d="M288 224h448a160 160 0 0 1 0 320 224 224 0 0 1-448 0 160 160 0 0 1 0-320z m0-64a224 224 0 0 0-58.496 440.288C255.68 732.384 372.224 832 512 832c139.808 0 256.32-99.616 282.496-231.712A224 224 0 0 0 736 160H288z m320.192-105.376V80a16 16 0 0 0 32 0v-25.376l17.92 17.92a16 16 0 0 0 22.656-22.592L662.848 32h25.344a16 16 0 1 0 0-32h-25.376l17.92-17.92a16 16 0 0 0-22.592-22.656l-17.952 17.92V-48a16 16 0 1 0-32 0v25.376l-17.92-17.92a16 16 0 0 0-22.656 22.592L585.536 0h-25.344a16 16 0 0 0 0 32h25.376l-17.92 17.92a16 16 0 1 0 22.592 22.656l17.952-17.92z m224 0V80a16 16 0 0 0 32 0v-25.376l17.92 17.92a16 16 0 0 0 22.656-22.592L886.848 32h25.344a16 16 0 1 0 0-32h-25.376l17.92-17.92a16 16 0 0 0-22.592-22.656l-17.952 17.92V-48a16 16 0 1 0-32 0v25.376l-17.92-17.92a16 16 0 0 0-22.656 22.592L809.536 0h-25.344a16 16 0 0 0 0 32h25.376l-17.92 17.92a16 16 0 1 0 22.592 22.656l17.952-17.92z m-447.36 0V80a16 16 0 1 0 32 0v-25.376l17.92 17.92a16 16 0 0 0 22.656-22.592L439.488 32h25.344a16 16 0 1 0 0-32h-25.376l17.952-17.92a16 16 0 0 0-22.624-22.656l-17.92 17.92V-48a16 16 0 1 0-32 0v25.376l-17.952-17.92a16 16 0 0 0-22.656 22.592L362.24 0h-25.376a16 16 0 1 0 0 32h25.376l-17.92 17.92a16 16 0 1 0 22.624 22.656l17.92-17.92z m-223.36 0V80a16 16 0 1 0 32 0v-25.376l17.952 17.92a16 16 0 0 0 22.624-22.592L216.128 32h25.376a16 16 0 1 0 0-32h-25.376l17.92-17.92a16 16 0 0 0-22.624-22.656l-17.92 17.92V-48a16 16 0 1 0-32 0v25.376l-17.952-17.92a16 16 0 0 0-22.624 22.592L138.848 0h-25.344a16 16 0 1 0 0 32h25.344l-17.92 17.92a16 16 0 0 0 22.624 22.656l17.92-17.92z"  horiz-adv-x="1024" />

    
    <glyph glyph-name="zhongxue" unicode="&#59144;" d="M288 224h448a160 160 0 0 1 0 320 224 224 0 0 1-448 0 160 160 0 0 1 0-320z m0-64a224 224 0 0 0-58.496 440.288C255.68 732.384 372.224 832 512 832c139.808 0 256.32-99.616 282.496-231.712A224 224 0 0 0 736 160H288z m432-105.376V80a16 16 0 1 0 32 0v-25.376l17.92 17.92a16 16 0 0 0 22.656-22.592L774.656 32H800a16 16 0 1 0 0-32h-25.376l17.92-17.92a16 16 0 0 0-22.592-22.656L752-22.65599999999995V-48a16 16 0 1 0-32 0v25.376l-17.92-17.92a16 16 0 0 0-22.656 22.592L697.344 0H672a16 16 0 1 0 0 32h25.376l-17.92 17.92a16 16 0 0 0 22.592 22.656L720 54.65599999999995z m-224 0V80a16 16 0 1 0 32 0v-25.376l17.92 17.92a16 16 0 0 0 22.656-22.592L550.656 32H576a16 16 0 1 0 0-32h-25.376l17.92-17.92a16 16 0 0 0-22.592-22.656L528-22.65599999999995V-48a16 16 0 1 0-32 0v25.376l-17.92-17.92a16 16 0 0 0-22.656 22.592L473.344 0H448a16 16 0 1 0 0 32h25.376l-17.92 17.92a16 16 0 0 0 22.592 22.656L496 54.65599999999995z m-224 0V80a16 16 0 1 0 32 0v-25.376l17.92 17.92a16 16 0 0 0 22.656-22.592L326.656 32H352a16 16 0 1 0 0-32h-25.376l17.92-17.92a16 16 0 0 0-22.592-22.656L304-22.65599999999995V-48a16 16 0 1 0-32 0v25.376l-17.92-17.92a16 16 0 0 0-22.656 22.592L249.344 0H224a16 16 0 1 0 0 32h25.376l-17.92 17.92a16 16 0 0 0 22.592 22.656L272 54.65599999999995z"  horiz-adv-x="1024" />

    
    <glyph glyph-name="zhongyu" unicode="&#59147;" d="M288 224h448a160 160 0 0 1 0 320 224 224 0 0 1-448 0 160 160 0 0 1 0-320z m0-64a224 224 0 0 0-58.496 440.288C255.68 732.384 372.224 832 512 832c139.808 0 256.32-99.616 282.496-231.712A224 224 0 0 0 736 160H288z m48-192c-26.496 0-48 22.912-48 51.2 0 18.88 16 44.48 48 76.8 32-32.32 48-57.92 48-76.8 0-28.288-21.504-51.2-48-51.2z m176 0c-26.496 0-48 22.912-48 51.2 0 18.88 16 44.48 48 76.8 32-32.32 48-57.92 48-76.8 0-28.288-21.504-51.2-48-51.2z m176 0c-26.496 0-48 22.912-48 51.2 0 18.88 16 44.48 48 76.8 32-32.32 48-57.92 48-76.8 0-28.288-21.504-51.2-48-51.2z"  horiz-adv-x="1024" />

    
    <glyph glyph-name="zhenyu" unicode="&#59148;" d="M594.496 586.1120000000001a128 128 0 0 0 168.736-191.616l-0.064 0.064a32 32 0 1 0-44 46.4 64 64 0 0 1-86.048 94.08l-0.064 0.064a32 32 0 0 0-38.56 51.008z m365.408-130.72a32 32 0 0 0-32-32h-32a32 32 0 0 0 0 64h32a32 32 0 0 0 32-32z m-361.76 287.136a32 32 0 0 0 38.4-24l7.168-31.136a32 32 0 0 0-62.336-14.4l-7.2 31.168a32 32 0 0 0 24 38.4zM868.8 680.16a32 32 0 0 0 4.736-44.992l-20.16-24.864a32 32 0 1 0-49.728 40.256l20.16 24.864a32 32 0 0 0 44.992 4.736zM345.728 143.67999999999995a32 32 0 0 0 15.488-42.56l-27.04-57.952a32 32 0 0 0-57.984 27.04l27.008 57.984a32 32 0 0 0 42.56 15.488z m148.128 0a32 32 0 0 0 15.456-42.56l-27.04-57.952a32 32 0 0 0-57.984 27.04l27.04 57.984a32 32 0 0 0 42.528 15.488z m80.48 20.736c53.28 9.344 97.6 57.12 97.6 112.768a113.12 113.12 0 0 1-113.344 112.928c0 87.296-71.04 158.08-158.624 158.08-87.616 0-158.656-70.784-158.656-158.08A113.12 113.12 0 0 1 128 277.12c0-55.744 45.792-103.616 99.264-112.832a32 32 0 0 0-5.28-63.776C133.888 105.75999999999999 64 180.03200000000004 64 270.88c0 78.816 52.608 145.12 124.096 164.768 19.648 100.64 107.04 176.512 211.84 176.512 104.864 0 192.256-75.872 211.872-176.512 71.488-19.616 124.096-85.952 124.096-164.8 0-90.144-68.8-163.968-156-170.208a32 32 0 0 0-5.568 63.712z"  horiz-adv-x="1024" />

    
    <glyph glyph-name="zhuce" unicode="&#58908;" d="M764.696774 177.548387c10.735484 14.864516 8.258065 36.335484-7.432258 47.070968-31.380645 23.122581-64.412903 42.116129-100.748387 56.154839 20.645161 13.212903 38.812903 28.077419 56.154839 44.593548 61.109677 61.109677 94.141935 141.212903 94.141935 227.096774 0 85.883871-33.032258 166.812903-94.141935 227.096774C652.387097 841.496774 571.458065 874.529032 485.574194 874.529032c-85.883871 0-166.812903-33.032258-227.096775-94.141935-61.109677-61.109677-94.141935-141.212903-94.141935-227.096774s33.032258-166.812903 94.141935-227.096775c17.341935-17.341935 36.335484-32.206452 56.980646-45.419354-48.722581-19.819355-94.141935-47.896774-132.954839-83.406452-83.406452-74.322581-135.432258-175.896774-148.645161-286.554839-2.477419-18.167742 10.735484-35.509677 29.729032-37.16129h4.129032c16.516129 0 31.380645 12.387097 33.858065 29.729032 10.735484 94.141935 56.154839 180.851613 126.348387 244.43871 71.019355 63.587097 163.509677 99.096774 259.303225 99.096774 84.232258 0 163.509677-26.425806 231.225807-75.974194 14.03871-11.56129 34.683871-8.258065 46.245161 6.606452zM474.012903 299.767742c-18.993548 0.825806-38.812903 4.129032-56.980645 9.083871-41.290323 11.56129-79.277419 33.858065-110.658064 65.23871-47.896774 47.896774-74.322581 111.483871-74.322581 180.025806s26.425806 131.303226 74.322581 180.025806c47.896774 47.896774 111.483871 74.322581 180.025806 74.322581 67.716129 0 131.303226-26.425806 180.025806-74.322581 47.896774-47.896774 74.322581-111.483871 74.322581-180.025806s-26.425806-131.303226-74.322581-180.025806c-31.380645-31.380645-69.367742-53.677419-110.658064-65.23871-27.251613-7.432258-54.503226-10.735484-81.754839-9.083871z m497.961291-234.529032h-86.709678V151.948387c0 18.993548-14.864516 33.858065-33.858064 33.858065S817.548387 170.941935 817.548387 151.948387v-86.709677H730.83871c-18.993548 0-33.858065-14.864516-33.858065-33.858065s14.864516-33.858065 33.858065-33.858064H817.548387v-86.709678c0-18.993548 14.864516-33.858065 33.858065-33.858064s33.858065 14.864516 33.858064 33.858064v86.709678h86.709678c18.993548 0 33.858065 14.864516 33.858064 33.858064s-15.690323 33.858065-33.858064 33.858065z m0 0"  horiz-adv-x="1024" />

    
    <glyph glyph-name="hetongqixian" unicode="&#58927;" d="M938.666667-71.111111h-71.111111v129.706667c0 141.880889-84.053333 268.231111-208.014223 325.432888C783.331556 441.429333 867.555556 568.32 867.555556 709.376V839.111111H938.666667a28.444444 28.444444 0 1 1 0 56.888889H85.333333a28.444444 28.444444 0 0 1 0-56.888889h71.111111v-129.706667c0-141.880889 83.996444-268.145778 207.928889-325.376A359.224889 359.224889 0 0 1 156.444444 58.595556V-71.111111H85.333333a28.444444 28.444444 0 1 1 0-56.888889h853.333334a28.444444 28.444444 0 1 1 0 56.888889zM213.333333-71.111111v129.706667c0 143.075556 100.835556 267.264 239.758223 295.253333a28.444444 28.444444 0 0 1 22.272 33.507555c-0.256 1.223111 1.592889 20.224-23.580445 27.050667C315.619556 451.242667 213.333333 566.926222 213.333333 709.376V839.111111h597.333334v-129.706667c0-139.918222-100.835556-253.496889-233.415111-293.944888-24.291556-7.424-25.514667-20.679111-26.908445-28.302223a28.728889 28.728889 0 0 1 22.101333-33.621333c138.040889-28.558222 238.222222-152.576 238.222223-294.940444V-71.111111h-597.333334z"  horiz-adv-x="1024" />

    
    <glyph glyph-name="lajitong" unicode="&#58950;" d="M844.8 569.6c-19.2 0-38.4-19.2-38.4-38.4v-550.4c0-19.2-19.2-38.4-38.4-38.4H256c-19.2 0-38.4 19.2-38.4 38.4V531.2c0 19.2-12.8 38.4-38.4 38.4-19.2 0-38.4-19.2-38.4-38.4v-550.4c6.4-57.6 51.2-108.8 115.2-108.8h512c64 0 115.2 51.2 115.2 115.2V531.2c0 19.2-19.2 38.4-38.4 38.4z m-409.6-435.2V531.2c0 19.2-12.8 38.4-38.4 38.4-19.2 0-38.4-19.2-38.4-38.4V128c0-19.2 12.8-38.4 38.4-38.4 25.6 6.4 38.4 19.2 38.4 44.8z m224 0V531.2c0 19.2-19.2 38.4-38.4 38.4s-38.4-19.2-38.4-38.4V128c0-19.2 19.2-38.4 38.4-38.4 19.2 6.4 38.4 19.2 38.4 44.8z m326.4 582.4h-179.2V787.2c0 57.6-51.2 108.8-108.8 108.8H326.4c-64 0-108.8-44.8-108.8-108.8v-76.8H38.4c-19.2 6.4-38.4-12.8-38.4-32s19.2-32 38.4-32h947.2c19.2 0 38.4 12.8 38.4 32s-19.2 38.4-38.4 38.4z m-256 0H288V787.2c0 19.2 19.2 38.4 38.4 38.4h371.2c19.2 0 32-12.8 32-38.4v-70.4z m0 0"  horiz-adv-x="1024" />

    
    <glyph glyph-name="xiazai" unicode="&#58880;" d="M746.7 0H277.3C195 0 128 66.6 128 148.4V555.6c0 81.8 67 148.4 149.3 148.4 17.7 0 32-14.3 32-32s-14.3-32-32-32c-47.1 0-85.3-37.8-85.3-84.4v-407.3c0-46.5 38.3-84.4 85.3-84.4h469.3c47.1 0 85.3 37.8 85.3 84.4V555.6c0 46.5-38.3 84.4-85.3 84.4-17.7 0-32 14.3-32 32s14.3 32 32 32C829 704 896 637.4 896 555.6v-407.3c0-81.7-67-148.3-149.3-148.3zM715.1 491.1c-12.4 12.4-32.8 12.4-45.3 0L544 365.3V736c0 17.6-14.4 32-32 32s-32-14.4-32-32v-370.7L354.1 491.1c-12.4 12.4-32.8 12.4-45.3 0-12.4-12.4-12.4-32.8 0-45.3L484.6 270c1.2-1.9 2.6-3.6 4.2-5.3 6.4-6.4 14.8-9.5 23.1-9.3 8.4-0.1 16.8 3 23.1 9.3 1.6 1.6 3 3.4 4.2 5.3L715 445.8c12.6 12.5 12.6 32.9 0.1 45.3z"  horiz-adv-x="1024" />

    
    <glyph glyph-name="ren" unicode="&#59043;" d="M983.8 75.9C958 136.8 921 191.6 874 238.6c-47 47-101.8 83.9-162.7 109.7-16.7 7.1-33.6 13.2-50.8 18.4 80.9 50 134.9 139.4 134.9 241.3C795.4 764.3 668.3 891.4 512 891.4 355.7 891.4 228.6 764.3 228.6 608c0-101.9 54-191.3 134.9-241.3-17.2-5.2-34.1-11.3-50.8-18.4-61-25.8-115.7-62.7-162.7-109.7-47-47-83.9-101.8-109.7-162.7C13.5 12.7 0-54.3 0-123.4h64c0 247 201 448 448 448s448-201 448-448h64c0 69.1-13.5 136.1-40.2 199.3zM292.6 608C292.6 729 391 827.4 512 827.4S731.4 729 731.4 608 633 388.6 512 388.6 292.6 487 292.6 608z"  horiz-adv-x="1024" />

    
    <glyph glyph-name="chakan1" unicode="&#58885;" d="M956 271.24800000000005C847.632 124.75199999999995 689.056 32.12800000000004 512 32.12800000000004 334.96 32.12800000000004 176.384 124.75199999999995 68 271.24800000000005 20.144 335.91999999999996 20.144 432.048 68 496.736 176.384 643.232 334.96 735.856 512 735.856 689.056 735.856 847.632 643.232 956 496.736 1003.856 432.048 1003.856 335.91999999999996 956 271.24800000000005ZM907.872 443.616C807.344 588.672 662.656 671.856 510.912 671.856 359.168 671.856 214.48 588.672 113.952 443.616 90 409.056 90 358.89599999999996 113.952 324.336 214.48 179.27999999999997 359.168 96.08000000000004 510.912 96.08000000000004 662.656 96.08000000000004 807.344 179.27999999999997 907.872 324.352 931.824 358.89599999999996 931.824 409.056 907.872 443.616ZM512.32 160.17600000000004C388.608 160.17600000000004 288.32 260.46400000000006 288.32 384.176 288.32 507.888 388.608 608.1759999999999 512.32 608.1759999999999 636.032 608.1759999999999 736.32 507.888 736.32 384.176 736.32 260.46400000000006 636.032 160.17600000000004 512.32 160.17600000000004ZM512.32 544.1759999999999C423.952 544.1759999999999 352.32 472.544 352.32 384.176 352.32 295.808 423.952 224.17600000000004 512.32 224.17600000000004 600.688 224.17600000000004 672.32 295.808 672.32 384.176 672.32 472.544 600.688 544.1759999999999 512.32 544.1759999999999Z"  horiz-adv-x="1024" />

    
    <glyph glyph-name="shijianlishijilujishizhongbiaoxianxing" unicode="&#59541;" d="M512-71.111111c-129.194667 2.958222-236.600889 47.246222-322.218667 132.892444C104.163556 147.399111 59.847111 254.805333 56.888889 384c2.958222 129.194667 47.246222 236.600889 132.892444 322.218667C275.399111 791.836444 382.805333 836.152889 512 839.111111c129.194667-2.958222 236.600889-47.246222 322.218667-132.892444C919.836444 620.600889 964.152889 513.194667 967.111111 384c-2.958222-129.194667-47.246222-236.600889-132.892444-322.218667C748.600889-23.836444 641.194667-68.152889 512-71.111111z m281.998222 173.112889c75.093333 75.093333 113.607111 168.504889 116.252445 280.689778-2.645333 114.801778-41.159111 208.213333-116.252445 283.306666-75.093333 75.093333-168.504889 113.607111-280.689778 116.252445-114.801778-2.645333-208.213333-41.159111-283.306666-116.252445-75.093333-75.093333-113.607111-168.504889-116.252445-280.689778 2.645333-114.801778 41.159111-208.213333 116.252445-283.306666 74.808889-74.808889 167.793778-113.322667 281.998222-116.195556 114.204444 2.872889 207.189333 41.386667 281.998222 116.195556zM512 384h199.111111a28.444444 28.444444 0 0 0 0-56.888889h-227.555555a28.444444 28.444444 0 0 0-28.444445 28.444445V640a28.444444 28.444444 0 0 0 56.888889 0v-256z"  horiz-adv-x="1024" />

    
    <glyph glyph-name="bianji" unicode="&#58922;" d="M1029.47284331 687.976433l-90.728881-91.862855c-0.341293-0.374321-0.176151-0.957822-0.539463-1.310125s-0.913784-0.19817-1.277096-0.539463L598.37579031 251.48474899999997c-1.310125-2.267947-0.968832-5.086366-2.906495-7.024029s-4.634979-1.541323-6.825859-2.829429l-15.237079-15.413231-243.947404-62.115319 63.997935 240.138134L857.13090531 860.307361a121.863608 121.863608 0 0 0 172.341938-172.330928zM389.64761831 222.397781l136.24195 48.562686-85.763619 85.774629z m142.572384 226.79468c-1.552333-1.563342-2.20189-3.6111-3.512014-5.295546l-44.191935-45.458021 85.081034-84.981948 63.656643 64.51538 239.356463 239.345454-86.15996 86.170969L532.22000231 449.236499zM986.38185431 817.227382a60.926299 60.926299 0 0 1-86.159959 0l-70.691682-70.691682 86.15996-86.159959 70.691681 70.691681a60.90428 60.90428 0 0 1 0 86.15996z m-441.016568-43.07998h-274.135317a60.926299 60.926299 0 0 1-60.926299-60.926299v-609.285009a60.91529 60.91529 0 0 1 60.926299-60.926299H880.47094031a60.91529 60.91529 0 0 1 60.926299 60.926299V439.041748a30.46315 30.46315 0 1 0 60.926299 0v-335.116664A121.852598 121.852598 0 0 0 880.47094031-17.927513999999974H271.18593131A121.852598 121.852598 0 0 0 149.36636131 103.92508399999997V713.221103A121.852598 121.852598 0 0 0 271.18593131 835.073701h274.135317a30.46315 30.46315 0 1 0 0-60.926299z m0 0"  horiz-adv-x="1147" />

    
    <glyph glyph-name="daiban1" unicode="&#58906;" d="M876.032 730.112C775.168 838.144 632.832 896 485.376 889.856 350.208 884.224 225.28 826.368 133.632 727.04 41.984 627.2-5.12 498.176 0.512 363.008c5.632-135.168 63.488-260.096 163.328-351.744 93.696-86.016 215.552-133.632 342.528-133.632 7.168 0 14.336 0 21.504 0.512 9.216 0.512 17.92 4.096 24.064 11.264 6.144 6.656 9.728 15.872 9.216 25.088-1.024 18.944-16.896 33.792-35.84 33.28-116.736-5.12-228.352 35.84-314.368 115.2-86.016 78.848-136.192 186.88-140.8 303.616-4.608 116.736 35.84 227.84 115.2 313.856 79.36 86.016 186.88 136.192 303.616 140.8 126.976 5.12 249.856-45.056 337.408-137.728 13.312-13.824 34.816-14.848 49.152-1.536 12.8 12.288 13.824 34.304 0.512 48.128zM930.816 608.256m-35.328 0a35.328 35.328 0 1 1 70.656 0 35.328 35.328 0 1 1-70.656 0ZM974.848 494.08m-35.328 0a35.328 35.328 0 1 1 70.656 0 35.328 35.328 0 1 1-70.656 0ZM988.672 376.832m-35.328 0a35.328 35.328 0 1 1 70.656 0 35.328 35.328 0 1 1-70.656 0ZM972.288 259.584m-35.328 0a35.328 35.328 0 1 1 70.656 0 35.328 35.328 0 1 1-70.656 0ZM928.256 150.016m-35.328 0a35.328 35.328 0 1 1 70.656 0 35.328 35.328 0 1 1-70.656 0ZM857.6 54.784m-35.328 0a35.328 35.328 0 1 1 70.656 0 35.328 35.328 0 1 1-70.656 0ZM766.464-19.968m-35.328 0a35.328 35.328 0 1 1 70.656 0 35.328 35.328 0 1 1-70.656 0ZM658.944-70.144m-35.328 0a35.328 35.328 0 1 1 70.656 0 35.328 35.328 0 1 1-70.656 0ZM805.888 378.368h-253.44V631.808c0 21.504-17.408 39.424-39.424 39.424s-39.424-17.408-39.424-39.424v-292.864c0-21.504 17.408-39.424 39.424-39.424h292.864c21.504 0 39.424 17.408 39.424 39.424s-17.408 39.424-39.424 39.424z"  horiz-adv-x="1024" />

    
    <glyph glyph-name="winfo-icon-xitongguanli" unicode="&#58951;" d="M934.7 475.5l-69.9 16c-7 23-16 44.8-26.7 65.1l38 60.7c8 12.8 6 30.4-4.7 41.1L788 741.9c-10.7 10.7-28 12.7-41.1 4.7l-60.7-38c-20.4 10.8-42.2 19.8-65.2 26.8l-16 69.8c-2.9 12.9-14.9 26-32.3 26H454.6c-15.1 0-29-11.2-32.3-26l-16-69.9c-23-7-44.8-16-65.1-26.7l-60.8 38c-12.8 8-30.4 6-41.1-4.7l-83.4-83.4c-10.7-10.7-12.7-28.3-4.7-41.1l38.1-60.7c-10.8-20.3-19.8-42.2-26.7-65.2l-69.9-16c-13.3-3-23.9-14.6-25.6-28.4l-0.1-0.8v-124.4l0.1-0.8c1.7-13.8 12.3-25.4 25.5-28.4l69.9-16c7-23 16-44.8 26.7-65.1l-38-60.7c-8-12.8-6-30.4 4.7-41.1l83.4-83.4c10.7-10.7 28.3-12.7 41.1-4.7l60.7 38c20.4-10.8 42.2-19.8 65.2-26.8l16-69.8c3.2-14.6 17-25.8 32.1-26h118.4c15.2 0 29 11.2 32.3 26l16 69.8c17.2 5.2 33.9 11.7 49.9 19.3l65.8-65.8c16.3-16.3 35-19.7 47.8-19.7 18.8 0 35 6.6 48.1 19.7l78.8 78.8 0.9 1c12.8 13.8 18.8 30.8 18.6 52 0 10.5-2 36.6-20.3 53.8l-63 59.5c6.7 14.6 12.4 29.8 17.1 45.2l69.8 16c14.6 3.2 25.7 17 26 32.1V443.2c0 15.1-11 29-25.9 32.3zM606 210.8c-8.6 8.6-21.8 11.8-33.6 8l-0.2-0.1c-16.8-5.6-35.4-8.2-58.6-8.2-47.4 0-92.7 18.1-124.4 49.6-31.5 31.5-49 75.2-49.3 123l81.3-81.3c7.4-7.6 18.5-11.1 29-9.4l108.6 19.7c13.4 2.5 24.4 13.5 26.9 26.9l19.7 108.3c2 10.7-1.6 22-9.3 29.6l-80.9 80.9c2.8 0.1 5.5 0.1 8.3 0.1 43.2 0 81.8-16.6 114.6-49.3 30.7-30.7 48.7-76.1 49.3-124.5 0.3-22-2.3-40.4-8.2-58v-0.1c-4-12.1-0.4-26 8.9-34.6L862.9 126c0.8-1.9 1.8-5.5 1.8-7.8-0.1-1.6-1.3-5.8-2.2-8.1L787 34.6c-0.8-0.4-1.9-0.8-2.8-1.1-0.4 0.1-0.7 0.3-1 0.4L606 210.8z m200.9 101.8c-2.8-11.4-6.2-22.4-10.1-32.9l-49.3 46.7c4.4 19.4 6.5 38.9 6.3 58.2-0.8 65.6-25.9 127.9-68.9 171-22.4 22.4-47.9 39.7-75.8 51.4-27.2 11.4-56 17.2-85.6 17.2-22.3 0-55.8-1.1-88.5-11.1-10.6-3.2-18.9-12.5-21.8-24.2-2.9-11.8 0.2-23.5 8.2-31.3L537 442l-12.4-68.7-68.4-12.5-116.1 116.1c-7.8 7.8-19.3 10.8-30.9 8-11.6-2.7-20.6-10.6-24.1-21-7.7-23.1-11.5-49.1-11.5-79.7 0-66 24.5-126.8 68.9-171.2 22.6-22.6 49.7-40.1 80.3-52 28.8-11.2 59.4-16.8 90.9-16.8 18.8 0 38.4 2.3 58.3 6.9l48.9-48.6c-12.1-4.8-23.8-8.5-35.5-11.3h-0.1c-11.8-3-21.6-12.9-24.3-24.8l-14.5-62.5H481l-14.5 62.4c-2.7 12.1-12.3 21.9-24.4 24.9-31.5 7.7-60.9 22.3-85.5 35.7-8.3 4.5-19.7 8.5-34.5-0.7l-54.6-34-46.1 46.1 34 54.6c7.3 11.6 7.4 23.1 0.5 35-16.7 28.5-28.6 57.2-35.5 85.1-2.9 11.8-12.9 21.6-24.8 24.3l-62.5 14.5v65.3l62.4 14.5c12.1 2.7 21.9 12.3 24.9 24.4 6.5 26.9 18 54.3 34.9 84l0.1 0.1c2.6 4.7 10.6 19 0.1 35.7l-34 54.6 46.1 46.1 54.6-34c11.6-7.3 23.1-7.4 35-0.5 28.5 16.7 57.1 28.6 85.1 35.5 11.8 3 21.6 12.9 24.3 24.8l14.5 62.5h65.3l14.5-62.4c2.7-12.1 12.3-21.8 24.4-24.9 31.5-7.7 60.9-22.4 85.5-35.7 8.3-4.5 19.7-8.5 34.6 0.7l54.6 34 46.1-46.1-34.1-54.6c-7.1-11.2-7.3-23.2-0.6-34.9l0.1-0.1c16.7-28.5 28.6-57.2 35.5-85.1 3-11.8 12.9-21.6 24.8-24.3l62.5-14.5v-65.3L831.8 337c-12.1-2.8-21.9-12.3-24.9-24.4z"  horiz-adv-x="1024" />

    
    <glyph glyph-name="shangxian" unicode="&#59131;" d="M518.688 443.208L637.52 290.032c4.352-5.616 0.424-13.936-6.688-13.936h-78.624v-261.736c0-4.76-3.824-8.64-8.488-8.64h-63.664a8.592 8.592 0 0 0-8.488 8.64v261.84h-78.416c-7.112 0-11.04 8.32-6.688 13.936l118.84 153.072a8.384 8.384 0 0 0 13.376 0z m314.096 94.064C924.4 512.92 992 428.872 992 328.976c0-119.064-95.896-215.504-214.176-215.504h-42.96c-4.72 0-8.576 3.88-8.576 8.616v64.656c0 4.744 3.856 8.616 8.568 8.616h42.96c35.472 0 68.792 13.904 93.864 39.12a133.248 133.248 0 0 1 38.888 94.496c0 60.56-40.6 113.68-98.672 129.416l-40.504 10.776-14.784 39.328a261.232 261.232 0 0 1-38.248 68.32 263.92 263.92 0 0 1-56.144 53.768 258.4 258.4 0 0 1-150 47.632 258.4 258.4 0 0 1-150-47.632 263.8 263.8 0 0 1-56.144-53.768 259.52 259.52 0 0 1-38.248-68.32l-14.896-39.44L212.32 458.4c-27.856-7.44-52.928-24.136-70.816-47.088a133.032 133.032 0 0 1-28.08-77.688c-1.176-36.424 12.216-71.552 37.4-97.632 25.28-26.184 59.248-40.624 95.36-40.624h42.96c4.72 0 8.568-3.872 8.568-8.616v-64.656c0-4.736-3.856-8.616-8.568-8.616h-42.96C127.888 113.472 32 209.912 32 328.976c0 100 67.824 184.16 159.64 208.4C240.72 667.544 365.76 760 512.216 760c146.464 0 271.496-92.56 320.568-222.728z"  horiz-adv-x="1024" />

    
    <glyph glyph-name="b_icon__import_bul1" unicode="&#59145;" d="M740.952 576L580 737.4159999999999V576h160.952zM768 512h-220a32 32 0 0 0-32 32V768H256v-640h512v128h-128v-66.104a16 16 0 0 0-24.876-13.312l-147.156 98.104a16 16 0 0 0 0 26.624l147.16 98.104a16 16 0 0 0 24.872-13.312V320h128V512z m0-256v-64h64v-96a32 32 0 0 0-32-32H224a32 32 0 0 0-32 32V800a32 32 0 0 0 32 32h338.788a32 32 0 0 0 22.66-9.404l237.212-237.9A32 32 0 0 0 832 562.1V384h-64v-64h192v-64h-192zM128 0h576v-32a32 32 0 0 0-32-32H96a32 32 0 0 0-32 32V672a32 32 0 0 0 32 32h32v-704z"  horiz-adv-x="1024" />

    
    <glyph glyph-name="daochu" unicode="&#58886;" d="M614.86-17.63h-499.6V785.63h450.62v-195.92a39.18 39.18 0 0 1 39.18-39.18H801v-58.78a39.18 39.18 0 0 1 78.37 0v100c0 0.55-0.07 1.1-0.12 1.64v0.28a39 39 0 0 1-6.36 17.81v0.06c-0.31 0.46-0.63 0.92-1 1.37l-0.16 0.22c-0.3 0.4-0.61 0.79-0.92 1.18l-0.27 0.34c-0.3 0.37-0.62 0.73-0.93 1.08l-0.32 0.37q-0.61 0.67-1.25 1.31l-0.07 0.08L632.78 852.51q-0.68 0.68-1.4 1.34l-0.28 0.24c-0.39 0.34-0.78 0.69-1.18 1l-0.28 0.22c-0.41 0.33-0.82 0.66-1.25 1l-0.18 0.13c-0.46 0.34-0.93 0.67-1.41 1a39 39 0 0 1-17.83 6.37h-0.27c-0.55 0-1.09 0.1-1.65 0.12s-1.31 0-2 0h-529A39.18 39.18 0 0 1 36.9 824.82v-881.64A39.18 39.18 0 0 1 76.08-96h538.78a39.18 39.18 0 0 1 0 78.37z m29.39 747.85L745.57 628.9H644.24zM977 181.38l0.53 0.61c0.24 0.28 0.49 0.56 0.72 0.84s0.45 0.57 0.67 0.85l0.5 0.65c0.24 0.32 0.47 0.65 0.69 1l0.4 0.58c0.23 0.34 0.44 0.68 0.66 1l0.37 0.59c0.2 0.34 0.4 0.68 0.59 1l0.36 0.65c0.17 0.33 0.34 0.65 0.5 1s0.25 0.5 0.37 0.75 0.28 0.6 0.41 0.91 0.26 0.58 0.38 0.88 0.21 0.54 0.32 0.81 0.26 0.67 0.38 1 0.16 0.47 0.24 0.7 0.25 0.76 0.37 1.14l0.18 0.62c0.12 0.41 0.23 0.82 0.33 1.24 0 0.19 0.09 0.38 0.13 0.57 0.1 0.43 0.2 0.86 0.28 1.29 0 0.19 0.07 0.39 0.1 0.58 0.08 0.43 0.15 0.86 0.22 1.29 0 0.22 0.06 0.44 0.08 0.67 0.05 0.41 0.11 0.81 0.15 1.22s0 0.59 0.07 0.88 0.06 0.68 0.07 1V209.56c0 0.34 0 0.68-0.07 1s0 0.59-0.07 0.88-0.09 0.81-0.15 1.22c0 0.22-0.05 0.44-0.08 0.67-0.06 0.43-0.14 0.86-0.22 1.29 0 0.19-0.07 0.39-0.1 0.58-0.09 0.43-0.18 0.86-0.28 1.29 0 0.19-0.09 0.38-0.13 0.57-0.1 0.42-0.22 0.83-0.33 1.24-0.06 0.21-0.11 0.42-0.18 0.62-0.12 0.38-0.24 0.76-0.37 1.14s-0.16 0.47-0.24 0.7-0.25 0.68-0.38 1-0.21 0.54-0.32 0.81-0.25 0.58-0.38 0.88-0.27 0.61-0.41 0.91-0.25 0.5-0.37 0.75-0.33 0.66-0.5 1l-0.36 0.65c-0.19 0.34-0.39 0.69-0.59 1l-0.37 0.59c-0.22 0.34-0.43 0.69-0.66 1l-0.4 0.58c-0.23 0.33-0.45 0.65-0.69 1l-0.5 0.65c-0.22 0.29-0.44 0.57-0.67 0.85s-0.48 0.56-0.72 0.84L977 234q-0.66 0.73-1.36 1.43L818.89 392.11a39.18 39.18 0 0 1-55.41-55.41l89.84-89.84H516.9a39.18 39.18 0 0 1 0-78.37h336.42l-89.84-89.84a39.18 39.18 0 1 1 55.41-55.41L975.61 180q0.7 0.65 1.39 1.38z"  horiz-adv-x="1024" />

    
    <glyph glyph-name="gongju-naoling" unicode="&#59073;" d="M594.091983-46.008007c0-45.295577-36.696416-81.991993-81.991993-81.991993s-81.991993 36.696416-81.991993 81.991993h163.983986zM512.09999 844.605019c17.298311 0 34.296651-1.299873 50.89503-3.699639 0.09999 1.199883 0.399961 2.399766 0.399961 3.699639 0 28.297237-22.997754 51.294991-51.294991 51.294991-28.297237 0-51.294991-22.997754-51.29499-51.294991 0-1.299873 0.299971-2.399766 0.39996-3.699639 16.598379 2.399766 33.596719 3.699639 50.89503 3.699639zM512.09999 776.91163c12.098818 0 24.597598-0.799922 36.996387-2.299776 1.799824-0.499951 3.699639-0.899912 5.699444-1.199883 139.286398-22.297822 244.276145-152.98506 244.276145-304.070305v-268.973733c0-28.297237 22.997754-51.294991 51.29499-51.294991h29.6971c40.096084 0 72.792891-32.596817 72.792892-72.792891v-35.496534c0-8.199199-6.599356-14.798555-14.798555-14.798555H86.041598c-8.199199 0-14.798555 6.599356-14.798555 14.798555v35.496534c0 40.096084 32.596817 72.792891 72.792891 72.792891h29.6971c28.297237 0 51.294991 22.997754 51.294991 51.294991v268.973733c0 151.085246 104.989747 281.772483 244.276145 304.070305 1.899814 0.299971 3.799629 0.699932 5.699443 1.199883 12.498779 1.499854 24.997559 2.299775 37.096377 2.299776m0 51.195c-17.298311 0-34.296651-1.299873-50.89503-3.699638 0-0.19998 0.09999-0.299971 0.099991-0.499952C298.620838 798.009569 173.833024 649.124109 173.833024 469.341666v-268.973733H144.035934c-68.493311 0-123.987892-55.494581-123.987892-123.987892v-35.496534c0-36.496436 29.59711-66.093546 66.093546-66.093545h852.016795c36.496436 0 66.093546 29.59711 66.093546 66.093545v35.496534c0 68.493311-55.494581 123.987892-123.987892 123.987892h-29.6971v268.973733C850.366956 649.124109 725.579143 798.009569 562.89503 824.007031c0 0.19998 0.09999 0.299971 0.09999 0.499951-16.598379 2.299775-33.596719 3.599648-50.89503 3.599648zM322.318524 542.134557h40.995996v-204.979982h-40.995996zM322.318524 297.858412h40.995996v-61.493994h-40.995996z"  horiz-adv-x="1024" />

    
    <glyph glyph-name="quxiao" unicode="&#58898;" d="M512-96a484.4 484.4 0 0 0-191.856 39.824 36.32 36.32 0 0 0 28.96 66.608 409.248 409.248 0 1 1-173.024 143.344 36.448 36.448 0 0 0-60.096-41.264A480.112 480.112 0 1 0 512-96zM373.2 209.792a37.488 37.488 0 0 0-26.592 11.088 37.936 37.936 0 0 0 0 52.464l279.28 275.584a37.104 37.104 0 1 0 52.464-52.464L399.072 220.88a35.84 35.84 0 0 0-25.872-11.088zM662 209.808a34.656 34.656 0 0 0-25.856 11.088L360.56 496.48a37.104 37.104 0 0 0 52.464 52.464l275.584-275.584a36.576 36.576 0 0 0 0-52.464 37.488 37.488 0 0 0-26.608-11.088z"  horiz-adv-x="1024" />

    
    <glyph glyph-name="gou" unicode="&#58907;" d="M1019.2 723.2c-20.8 20.8-59.2 20.8-81.6 0L403.2 190.4l-304 304c-9.6 9.6-25.6 16-40 16s-30.4-6.4-40-16c-20.8-20.8-20.8-59.2 0-81.6l344-345.6c9.6-11.2 24-17.6 40-17.6 14.4 0 28.8 4.8 41.6 14.4l576 577.6c20.8 22.4 20.8 59.2-1.6 81.6z"  horiz-adv-x="1036" />

    
    <glyph glyph-name="gengxin" unicode="&#58884;" d="M904.14 572.109a35.994 35.994 0 0 1 49.358-13.005 36.096 36.096 0 0 1 13.004 49.408 443.597 443.597 0 0 1-67.123 87.808 36.198 36.198 0 0 1-51.507-50.688c21.76-22.067 40.653-46.848 56.269-73.523z m257.28-239.36l-144.793 144.793a36.198 36.198 0 0 1-51.097 0L820.685 332.75a36.147 36.147 0 0 1 51.097-51.098l82.125 82.074C943.31 167.219 780.595 10.547 581.478 10.547c-133.12 0-257.126 71.68-323.737 187.085a36.096 36.096 0 1 1-62.618-36.096 447.334 447.334 0 0 1 386.355-223.283c239.616 0 435.098 190.157 444.826 427.417l84.02-84.019a35.994 35.994 0 0 1 51.097 0 36.096 36.096 0 0 1 0 51.098zM351.438 456.448a36.147 36.147 0 0 1-51.098 51.098l-90.675-90.624c16.742 190.566 176.947 340.53 371.763 340.53 31.027 0 62.003-3.84 92.007-11.417a36.147 36.147 0 1 1 17.664 70.093 449.178 449.178 0 0 1-109.722 13.62c-229.888 0-419.584-174.951-443.187-398.644l-76.39 76.442A36.198 36.198 0 0 1 10.7 456.448l144.793-144.794a35.994 35.994 0 0 1 51.098 0l144.845 144.794z"  horiz-adv-x="1172" />

    
    <glyph glyph-name="yinzhang" unicode="&#59082;" d="M945.28-128H68.48a36.608 36.608 0 0 0-36.48 36.48c0 20.16 16.448 36.608 36.48 36.608h876.8c20.096 0 36.48-16.448 36.48-36.544 0-20.096-16.384-36.544-36.48-36.544z m0 146.112H68.48a36.608 36.608 0 0 0-36.48 36.544v182.656C32 297.6 81.28 346.88 141.568 346.88h233.792c-7.296 43.84-29.184 85.888-60.224 122.368a255.296 255.296 0 0 0-64 169.92c0 69.376 27.456 135.168 78.592 184.448 51.2 49.28 116.864 73.088 188.16 71.232 131.456-5.44 242.88-118.72 244.736-250.24 1.792-65.728-23.744-129.664-67.584-179.008-31.04-32.832-49.28-73.024-56.64-118.72h233.792c60.288 0 109.632-49.28 109.632-109.568v-182.656c0-20.096-16.448-36.48-36.544-36.48zM105.088 91.2h803.648v146.112a36.608 36.608 0 0 1-36.48 36.48H598.144a36.608 36.608 0 0 0-36.48 36.544c0 76.8 27.392 149.76 78.528 204.608 32.832 34.688 49.28 80.384 49.28 127.872-1.792 94.976-80.32 175.36-175.36 179.008a177.472 177.472 0 0 1-133.312-51.2 181.12 181.12 0 0 1-56.64-131.456c0-43.84 16.448-87.68 45.696-120.576 52.928-60.288 82.176-133.312 82.176-208.256 0-20.032-16.448-36.48-36.48-36.48H141.504a36.608 36.608 0 0 1-36.48-36.544v-146.112z"  horiz-adv-x="1024" />

    
    <glyph glyph-name="d" unicode="&#58909;" d="M322.389333-14.0288a444.245333 444.245333 0 0 0-252.928 359.253333H5.9392c21.6064-260.983467 239.786667-466.0224 506.2656-466.0224l27.9552 1.262934-161.416533 161.416533-56.354134-55.9104z m400.008534 527.018667a141.994667 141.994667 0 0 1-48.3328 32.631466c-18.261333 7.645867-39.0144 11.434667-61.883734 11.434667h-100.010666v-338.944h97.450666c23.278933 0 44.8512 3.7888 63.931734 11.434667s35.601067 18.193067 49.152 32.187733c13.5168 13.994667 24.1664 30.9248 31.368533 50.449067 7.168 19.899733 11.025067 41.915733 11.025067 66.525866v16.930134a194.56 194.56 0 0 1-11.025067 66.491733 147.387733 147.387733 0 0 1-31.675733 50.858667z m-16.554667-133.8368c0-17.8176-2.1504-33.4848-5.9392-47.889067-4.232533-13.994667-10.171733-26.3168-18.2272-36.010667-8.055467-9.762133-18.158933-17.408-30.037333-22.493866-12.322133-5.051733-26.282667-7.611733-41.949867-7.611734h-38.570667V509.610667h41.096534c30.481067 0 53.794133-9.762133 69.461333-29.218134 16.110933-19.490133 24.1664-47.479467 24.1664-84.3776v-16.861866zM512.2048 896l-27.9552-1.297067 161.416533-161.416533 56.32 56.32c138.5472-65.6384 237.6704-199.953067 252.5184-359.253333h63.522134C996.864 690.926933 778.683733 896 512.2048 896z m-154.282667-339.080533c31.5392 0 57.992533-8.8064 78.370134-27.374934 19.933867-18.5344 30.139733-42.222933 30.139733-71.441066 0-28.7744-11.127467-54.749867-32.494933-78.404267-12.970667-13.448533-35.703467-31.061333-68.642134-53.3504-35.669333-23.620267-57.0368-44.509867-64-62.634667h165.614934v-44.475733H238.728533c0 32.938667 10.683733 61.713067 32.904534 86.7328 12.0832 14.370133 37.137067 34.338133 74.683733 60.3136 22.289067 15.7696 38.058667 28.2624 47.3088 38.024533 14.848 16.6912 22.7328 34.781867 22.7328 54.272 0 18.5344-5.085867 32.4608-15.291733 41.745067-10.205867 9.284267-25.4976 13.9264-44.987734 13.9264-20.855467 0-36.625067-6.9632-47.274666-21.333333-11.1616-13.9264-16.725333-33.860267-17.646934-60.791467H240.571733c0.477867 37.102933 11.127467 66.798933 32.017067 89.053867 21.333333 24.1664 50.0736 35.7376 85.333333 35.7376z m0 0"  horiz-adv-x="1024" />

    
    <glyph glyph-name="dianhua" unicode="&#58896;" d="M647.787 50.603c-76.054 24.234-157.248 76.266-240.918 163.648-81.152 84.757-131.626 164.864-157.504 238.442-16.832 47.83-21.056 85.547-18.581 111.403a50.987 50.987 0 0 0 0.384 3.221l0.341 3.35c0.47 18.112 10.923 46.144 22.123 59.264a414.677 414.677 0 0 0 34.56 39.466c9.835 9.878 19.307 18.134 27.947 24.192 12.885 9.046 21.162 11.328 23.317 10.07-0.213-0.022 1.045-1.323 2.837-3.776 3.158-4.288 7.083-10.518 11.67-18.411a1030.4 1030.4 0 0 0 31.04-59.264 3473.11 3473.11 0 0 0 58.368-126.23c1.706-3.84 0.938-12.309-1.344-15.722l-47.04-69.824a27.52 27.52 0 0 1-3.371-7.424c-7.51-25.92 12.31-66.517 73.835-129.216 37.504-38.187 70.293-63.061 98.496-77.077 18.944-9.43 33.28-12.8 42.73-12.587 4.48 0.192 8.256 1.45 11.52 3.627l69.547 46.933c3.584 2.41 12.416 3.35 16.533 1.685l8.704-3.477a3178.795 3178.795 0 0 0 91.478-38.464c7.04-3.115 13.802-6.144 20.266-9.088 21.76-9.963 39.638-18.773 52.63-25.984 6.784-3.797 12.074-7.061 15.573-9.643 1.43-1.066 2.432-1.877 2.901-2.346a10.603 10.603 0 0 0-2.197 3.968l1.472-3.2c4.523-8.064-16.853-38.123-51.563-68.715a626.624 626.624 0 0 0-20.544-17.344 21.333 21.333 0 1 1 26.454-33.45 669.056 669.056 0 0 1 22.293 18.794c52.48 46.293 80.661 85.867 60.544 121.643l1.472-3.2c-6.037 16.64-32.277 31.274-91.307 58.261-6.613 3.05-13.546 6.144-20.736 9.323a2876.63 2876.63 0 0 1-101.61 42.538c-17.11 6.912-40.875 4.416-56.235-5.93l-69.547-46.934 10.923 3.627c0.576 0.021-0.555 0.15-2.987 0.725a92.693 92.693 0 0 0-19.306 7.424c-23.68 11.776-52.694 33.792-87.04 68.779-51.798 52.757-65.323 80.49-63.318 87.445a16.021 16.021 0 0 0-1.92-4.074l46.742 69.376c10.474 15.573 12.586 39.53 5.013 56.725l-4.139 9.365a3937.259 3937.259 0 0 1-46.122 100.203c-3.03 6.293-5.974 12.416-8.875 18.304-30.997 63.083-48.512 93.29-64.213 100.48-18.923 11.157-42.262 4.672-67.456-12.992-10.923-7.659-22.187-17.472-33.643-28.97a456.597 456.597 0 0 1-37.61-42.88c-16.854-19.713-30.806-57.174-31.51-84.907l0.341 3.349c-0.277-1.493-0.597-3.797-0.896-6.955-3.05-31.893 1.878-75.818 20.822-129.621 27.946-79.467 81.664-164.736 166.912-253.781 88.49-92.416 175.765-148.331 258.773-174.806 27.797-8.853 53.888-13.952 77.973-15.957a21.333 21.333 0 0 1 3.52 42.517 310.57 310.57 0 0 0-68.522 14.08z"  horiz-adv-x="1024" />

    
    <glyph glyph-name="yonghu" unicode="&#58942;" d="M512-128C229.180952-128 0 101.180952 0 384S229.180952 896 512 896 1024 666.819048 1024 384 794.819048-128 512-128z m0 975.238095C258.438095 847.238095 48.761905 637.561905 48.761905 384S258.438095-79.238095 512-79.238095s463.238095 209.67619 463.238095 463.238095S765.561905 847.238095 512 847.238095zM526.628571 393.752381c78.019048 9.752381 136.533333 78.019048 126.780953 156.038095-4.87619 73.142857-73.142857 131.657143-146.285714 126.780953-73.142857-4.87619-131.657143-68.266667-126.780953-141.409524v-9.752381c0-78.019048 68.266667-136.533333 146.285714-131.657143z m102.4-19.504762c-34.133333 19.504762-82.895238-24.380952-126.780952-24.380952s-92.647619 43.885714-126.780952 24.380952c-87.771429-48.761905-112.152381-92.647619-112.152381-204.8 0-43.885714 487.619048-39.009524 487.619047 0 14.628571 87.771429-34.133333 175.542857-121.904762 204.8z"  horiz-adv-x="1024" />

    
    <glyph glyph-name="play" unicode="&#58938;" d="M362.737413 238.827856c0-40.595719 28.787459-57.03467 63.517637-37.045523L679.167923 347.571902c35.270425 19.989147 35.270425 53.484474 0 73.473621L426.795297 566.835092c-35.270425 19.989147-63.517636 3.550196-63.517636-37.045523-0.540247 0-0.540247-290.961712-0.540248-290.961713zM512 896a512 512 0 1 1 512-512A512.771782 512.771782 0 0 1 512 896z m0-950.526379a438.526379 438.526379 0 1 0 438.526379 438.526379 439.298161 439.298161 0 0 0-438.526379-438.526379z"  horiz-adv-x="1024" />

    


  </font>
</defs>
</svg>
